<?xml version="1.0" encoding="utf-8"?>
<!-- Generator: Adobe Illustrator 27.4.0, SVG Export Plug-In . SVG Version: 6.00 Build 0)  -->
<svg version="1.1" xmlns="http://www.w3.org/2000/svg" xmlns:xlink="http://www.w3.org/1999/xlink" x="0px" y="0px"
	 viewBox="0 0 312 312" style="enable-background:new 0 0 312 312;" xml:space="preserve">
<style type="text/css">
	.st0{fill:#FFFFFF;stroke:#000000;stroke-miterlimit:10;}
</style>
<g id="Background">
	<g>
		<rect x="0.5" y="0.5" width="311" height="311"/>
		<path d="M311,1v310H1V1H311 M312,0H0v312h312V0L312,0z"/>
	</g>
</g>
<g id="Logo">
	<g id="Icon">
		<g id="Layer_4">
			<g>
				<path class="st0" d="M103.72,201.66v0.15c1.51,0.24,2.7,0.52,3.57,0.83l22.72,8.09V192.7l-22.72,8.16
					C106.55,201.13,105.36,201.4,103.72,201.66z"/>
				<path class="st0" d="M116.28,97.16c-1.28-0.53-2.71-0.8-4.3-0.8c-2.85,0-5.08,0.9-6.68,2.7c-1.6,1.8-2.4,4.4-2.4,7.81v8.34
					h19.34v-8.27c0-1.52-0.24-2.93-0.71-4.22c-0.47-1.29-1.15-2.41-2.03-3.35C118.63,98.43,117.55,97.69,116.28,97.16z"/>
				<path class="st0" d="M150.59,91.28l-14.95,8.7c-1.39,0.8-2.57,1.57-3.55,2.32c-0.98,0.75-1.78,1.52-2.4,2.3
					c-0.62,0.79-1.07,1.63-1.36,2.54c-0.28,0.91-0.43,1.93-0.43,3.06v5h22.69v6.09H97.25v-15.52c0-2.27,0.29-4.37,0.87-6.29
					c0.58-1.92,1.47-3.59,2.66-5.01c1.19-1.41,2.67-2.52,4.44-3.32c1.77-0.8,3.85-1.2,6.23-1.2c1.86,0,3.56,0.27,5.11,0.82
					c1.55,0.54,2.93,1.32,4.15,2.32c1.22,1,2.25,2.21,3.11,3.63c0.85,1.41,1.52,3,1.99,4.77h0.15c0.4-0.87,0.85-1.63,1.36-2.27
					c0.51-0.64,1.11-1.25,1.8-1.83c0.69-0.58,1.48-1.16,2.36-1.72c0.88-0.57,1.9-1.2,3.07-1.9l15.93-9.69l-68.4-58.57V288
					L235,156.46l-84.41-72.28V91.28z M150.59,185.2l-14.95,5.51v22.05l14.95,5.19v6.78l-53.33-19.94v-6.31l53.33-20.02V185.2z
					 M146.94,133.38c3.03,5.22,4.54,11.02,4.54,17.4c0,7.42-2.45,13.42-7.36,18c-4.91,4.58-11.41,6.87-19.49,6.87
					c-8.26,0-15.03-2.54-20.33-7.63c-5.29-5.09-7.94-11.54-7.94-19.34c0-5.66,0.94-10.41,2.83-14.25h6.92
					c-2.73,4.21-4.09,9.19-4.09,14.94c0,5.83,2.06,10.6,6.17,14.32c4.12,3.72,9.45,5.58,15.99,5.58c6.74,0,12.04-1.73,15.9-5.19
					c3.86-3.46,5.78-8.15,5.78-14.07c0-4.06-0.83-7.58-2.49-10.55h-14.95v11.39h-5.65v-17.48H146.94z"/>
			</g>
		</g>
	</g>
</g>
</svg>
