<?xml version="1.0" encoding="utf-8"?>
<!-- Generator: Adobe Illustrator 27.4.0, SVG Export Plug-In . SVG Version: 6.00 Build 0)  -->
<svg version="1.1" id="Layer_1" xmlns="http://www.w3.org/2000/svg" xmlns:xlink="http://www.w3.org/1999/xlink" x="0px" y="0px"
	 viewBox="0 0 900 312" style="enable-background:new 0 0 900 312;" xml:space="preserve">
<style type="text/css">
	.st0{fill:#FFFFFF;stroke:#000000;stroke-miterlimit:10;}
	.st1{fill:#F2F2F2;}
	.st2{font-family:'Lato-Regular';}
	.st3{font-size:95px;}
	.st4{letter-spacing:-2;}
</style>
<g id="Background">
	<g>
		<rect x="0.5" y="0.5" width="899" height="311"/>
		<path d="M899,1v310H1V1H899 M900,0H0v312h900V0L900,0z"/>
	</g>
</g>
<g id="Logo">
	<g id="Icon">
		<g id="Layer_4">
			<g>
				<path class="st0" d="M88.7,189v0.1c1.1,0.2,1.9,0.4,2.6,0.6l16.4,6v-13.4l-16.4,6C90.7,188.6,89.9,188.8,88.7,189L88.7,189z"/>
				<path class="st0" d="M97.8,111.6c-0.9-0.4-2-0.6-3.1-0.6c-2.1,0-3.7,0.7-4.8,2c-1.2,1.3-1.7,3.3-1.7,5.8v6.2h14v-6.1
					c0-1.1-0.2-2.2-0.5-3.1c-0.3-1-0.8-1.8-1.5-2.5C99.5,112.5,98.7,112,97.8,111.6L97.8,111.6z"/>
				<path class="st0" d="M122.6,107.2l-10.8,6.4c-1,0.6-1.9,1.2-2.6,1.7c-0.7,0.6-1.3,1.1-1.7,1.7c-0.4,0.6-0.8,1.2-1,1.9
					c-0.2,0.7-0.3,1.4-0.3,2.3v3.7h16.4v4.5H84V118c0-1.7,0.2-3.2,0.6-4.7s1.1-2.7,1.9-3.7s1.9-1.9,3.2-2.5s2.8-0.9,4.5-0.9
					c1.3,0,2.6,0.2,3.7,0.6c1.1,0.4,2.1,1,3,1.7c0.9,0.7,1.6,1.6,2.2,2.7c0.6,1.1,1.1,2.2,1.4,3.5h0.1c0.3-0.6,0.6-1.2,1-1.7
					s0.8-0.9,1.3-1.4s1.1-0.9,1.7-1.3s1.4-0.9,2.2-1.4l11.5-7.2L73.1,58.5v194.4l110.4-97.4L122.6,102L122.6,107.2L122.6,107.2z
					 M122.6,176.8l-10.8,4.1v16.3l10.8,3.8v5L84,191.3v-4.7l38.5-14.8V176.8L122.6,176.8z M119.9,138.4c2.2,3.9,3.3,8.2,3.3,12.9
					c0,5.5-1.8,9.9-5.3,13.3c-3.5,3.4-8.2,5.1-14.1,5.1s-10.8-1.9-14.7-5.6c-3.8-3.8-5.7-8.5-5.7-14.3c0-4.2,0.7-7.7,2-10.6h5
					c-2,3.1-2.9,6.8-2.9,11.1s1.5,7.9,4.5,10.6s6.8,4.1,11.6,4.1s8.7-1.3,11.5-3.8c2.8-2.6,4.2-6,4.2-10.4c0-3-0.6-5.6-1.8-7.8
					h-10.8v8.4h-4.1v-12.9L119.9,138.4L119.9,138.4z"/>
			</g>
		</g>
	</g>
	<text transform="matrix(1 0 0 1 236.84 191.01)" class="st1 st2 st3 st4">A</text>
	<text transform="matrix(1 0 0 1 301.87 191.01)" class="st1 st2 st3">GERA SDK</text>
</g>
</svg>
