<?xml version="1.0" encoding="utf-8"?>
<!-- Generator: Adobe Illustrator 27.4.0, SVG Export Plug-In . SVG Version: 6.00 Build 0)  -->
<svg version="1.1" xmlns="http://www.w3.org/2000/svg" xmlns:xlink="http://www.w3.org/1999/xlink" x="0px" y="0px"
	 viewBox="0 0 900 312" style="enable-background:new 0 0 900 312;" xml:space="preserve">
<style type="text/css">
	.st0{fill:#FFFFFF;stroke:#000000;stroke-miterlimit:10;}
	.st1{fill:none;}
	.st2{fill:#F2F2F2;}
	.st3{font-family:'MicrosoftSansSerif';}
	.st4{font-size:95px;}
</style>
<g id="Background">
	<g>
		<rect x="0.5" y="0.5" width="899" height="311"/>
		<path d="M899,1v310H1V1H899 M900,0H0v312h900V0L900,0z"/>
	</g>
</g>
<g id="Logo">
	<g id="Icon">
		<g id="Layer_4">
			<g>
				<path class="st0" d="M88.71,188.97v0.11c1.09,0.18,1.95,0.39,2.58,0.62l16.41,5.99v-13.35l-16.41,6.04
					C90.75,188.58,89.89,188.78,88.71,188.97z"/>
				<path class="st0" d="M97.77,111.58c-0.92-0.39-1.96-0.59-3.1-0.59c-2.06,0-3.67,0.67-4.82,2c-1.16,1.33-1.73,3.26-1.73,5.79
					v6.18h13.96v-6.12c0-1.13-0.17-2.17-0.51-3.13c-0.34-0.96-0.83-1.79-1.46-2.48C99.47,112.52,98.69,111.97,97.77,111.58z"/>
				<path class="st0" d="M122.55,107.23l-10.8,6.45c-1,0.59-1.86,1.16-2.56,1.72c-0.71,0.55-1.28,1.12-1.73,1.71
					c-0.45,0.58-0.77,1.21-0.98,1.88c-0.21,0.67-0.31,1.43-0.31,2.27v3.71h16.38v4.51H84.04v-11.49c0-1.68,0.21-3.24,0.63-4.66
					c0.42-1.42,1.06-2.66,1.92-3.71s1.93-1.87,3.21-2.46c1.28-0.59,2.78-0.89,4.5-0.89c1.34,0,2.57,0.2,3.69,0.61
					c1.12,0.4,2.12,0.97,2.99,1.72c0.88,0.74,1.62,1.64,2.24,2.69c0.62,1.05,1.1,2.22,1.44,3.53h0.11c0.29-0.64,0.61-1.21,0.98-1.68
					c0.37-0.47,0.8-0.93,1.3-1.36c0.5-0.43,1.07-0.86,1.71-1.28c0.64-0.42,1.37-0.89,2.22-1.41l11.5-7.18L73.08,58.52v194.4
					L183.5,155.5l-60.95-53.53V107.23z M122.55,176.78l-10.8,4.08v16.33l10.8,3.84v5.02l-38.51-14.77v-4.67l38.51-14.82V176.78z
					 M119.91,138.41c2.18,3.87,3.28,8.16,3.28,12.89c0,5.5-1.77,9.94-5.32,13.33c-3.54,3.39-8.24,5.09-14.07,5.09
					c-5.96,0-10.85-1.88-14.68-5.65c-3.82-3.77-5.73-8.54-5.73-14.33c0-4.19,0.68-7.71,2.04-10.55h5c-1.97,3.12-2.95,6.8-2.95,11.06
					c0,4.31,1.49,7.85,4.46,10.61c2.97,2.76,6.82,4.14,11.55,4.14c4.87,0,8.7-1.28,11.48-3.84c2.78-2.56,4.18-6.03,4.18-10.42
					c0-3.01-0.6-5.61-1.8-7.81h-10.8v8.43h-4.08v-12.94H119.91z"/>
			</g>
		</g>
	</g>
	<rect x="202.08" y="58.52" class="st1" width="593.92" height="194.4"/>
	
		<text id="Text_00000142854789775024601530000004158293098192185506_" transform="matrix(1 0 0 1 222.459 189.7217)" class="st2 st3 st4">AGERA SDK</text>
</g>
</svg>
