<?xml version="1.0" encoding="UTF-8"?>
<svg xmlns="http://www.w3.org/2000/svg" viewBox="0 0 900 312">
  <defs>
    <style>
      .cls-1 {
        fill: #f2f2f2;
        font-family: Lato-Bold, Lato;
        font-size: 95px;
        font-weight: 700;
      }

      .cls-2 {
        fill: #fff;
        stroke: #000;
        stroke-miterlimit: 10;
      }

      .cls-3 {
        letter-spacing: -.03em;
      }
    </style>
  </defs>
  <g id="Background">
    <g>
      <rect x=".5" y=".5" width="899" height="311"/>
      <path d="m899,1v310H1V1h898m1-1H0v312h900V0h0Z"/>
    </g>
  </g>
  <g id="Logo">
    <g id="Icon">
      <g id="Layer_4" data-name="Layer 4">
        <g>
          <path class="cls-2" d="m88.71,188.97v.11c1.09.18,1.95.39,2.58.62l16.41,5.99v-13.35l-16.41,6.04c-.54.2-1.4.39-2.58.59Z"/>
          <path class="cls-2" d="m97.77,111.58c-.92-.39-1.96-.59-3.1-.59-2.06,0-3.67.67-4.82,2-1.16,1.33-1.73,3.26-1.73,5.79v6.18h13.96v-6.12c0-1.13-.17-2.17-.51-3.13-.34-.96-.83-1.79-1.46-2.48-.64-.7-1.41-1.24-2.34-1.64Z"/>
          <path class="cls-2" d="m122.55,107.23l-10.8,6.45c-1,.59-1.86,1.16-2.56,1.72-.71.55-1.28,1.12-1.73,1.71-.45.58-.77,1.21-.98,1.88-.21.67-.31,1.43-.31,2.27v3.71h16.38v4.51h-38.51v-11.49c0-1.68.21-3.24.63-4.66.42-1.42,1.06-2.66,1.92-3.71s1.93-1.87,3.21-2.46c1.28-.59,2.78-.89,4.5-.89,1.34,0,2.57.2,3.69.61,1.12.4,2.12.97,2.99,1.72.88.74,1.62,1.64,2.24,2.69.62,1.05,1.1,2.22,1.44,3.53h.11c.29-.64.61-1.21.98-1.68.37-.47.8-.93,1.3-1.36.5-.43,1.07-.86,1.71-1.28.64-.42,1.37-.89,2.22-1.41l11.5-7.18-49.39-43.38v194.4l110.42-97.42-60.95-53.53v5.26Zm0,69.56l-10.8,4.08v16.33l10.8,3.84v5.02l-38.51-14.77v-4.67l38.51-14.82v5Zm-2.63-38.38c2.18,3.87,3.28,8.16,3.28,12.89,0,5.5-1.77,9.94-5.32,13.33-3.54,3.39-8.24,5.09-14.07,5.09s-10.85-1.88-14.68-5.65c-3.82-3.77-5.73-8.54-5.73-14.33,0-4.19.68-7.71,2.04-10.55h5c-1.97,3.12-2.95,6.8-2.95,11.06s1.49,7.85,4.46,10.61c2.97,2.76,6.82,4.14,11.55,4.14s8.7-1.28,11.48-3.84c2.78-2.56,4.18-6.03,4.18-10.42,0-3.01-.6-5.61-1.8-7.81h-10.8v8.43h-4.08v-12.94h17.46Z"/>
        </g>
      </g>
    </g>
    <text id="Text" class="cls-1" transform="translate(236.84 191.01)"><tspan class="cls-3" x="0" y="0">A</tspan><tspan x="65.03" y="0">GERA SDK</tspan></text>
  </g>
</svg>